<svg width="126.00036" height="29.663752" xmlns="http://www.w3.org/2000/svg">
 <defs>
  <clipPath id="clipPath224" clipPathUnits="userSpaceOnUse">
   <path id="path226" d="m493.84921,7.0065l595.276,0l0,841.89l-595.276,0l0,-841.89z"/>
  </clipPath>
  <clipPath id="clipPath200" clipPathUnits="userSpaceOnUse">
   <path id="path202" d="m493.84921,7.0065l595.276,0l0,841.89l-595.276,0l0,-841.89z"/>
  </clipPath>
  <clipPath id="clipPath182" clipPathUnits="userSpaceOnUse">
   <path id="path184" d="m0,0l595.276,0l0,841.89l-595.276,0l0,-841.89z"/>
  </clipPath>
  <clipPath id="clipPath162" clipPathUnits="userSpaceOnUse">
   <path id="path164" d="m0,0l595.276,0l0,841.89l-595.276,0l0,-841.89z"/>
  </clipPath>
  <clipPath id="clipPath112" clipPathUnits="userSpaceOnUse">
   <path id="path114" d="m0,0l595.276,0l0,841.89l-595.276,0l0,-841.89z"/>
  </clipPath>
  <clipPath id="clipPath86" clipPathUnits="userSpaceOnUse">
   <path id="path88" d="m0,0l595.276,0l0,841.89l-595.276,0l0,-841.89z"/>
  </clipPath>
  <clipPath id="clipPath72" clipPathUnits="userSpaceOnUse">
   <path id="path74" d="m0,0l595.276,0l0,841.89l-595.276,0l0,-841.89z"/>
  </clipPath>
 </defs>
 <metadata id="metadata4615">image/svg+xml</metadata>
 <g>
  <title>background</title>
  <rect fill="none" id="canvas_background" height="602" width="802" y="-1" x="-1"/>
 </g>
 <g>
  <title>Layer 1</title>
  <g id="layer1">
   <g id="g196" transform="matrix(1.25,0,0,-1.25,-708.8199,347.27287) ">
    <g clip-path="url(#clipPath200)" id="g198">
     <g id="g204">
      <path fill="#ffffff" fill-rule="nonzero" id="path206" d="m594.32983,271.86221l5.432,0c2.2,0 3.84,-0.964 3.84,-2.995c0,-1.489 -0.761,-2.318 -2.081,-2.758l0,-0.034c1.574,-0.322 2.386,-1.168 2.386,-2.606c0,-2.826 -2.488,-3.418 -4.603,-3.418l-4.974,0l0,11.811zm3.147,-4.671l0.88,0c1.032,0 2.099,0.254 2.099,1.253c0,1.082 -1.016,1.184 -2.066,1.184l-0.913,0l0,-2.437zm0,-4.907l0.931,0c1.151,0 2.352,0.17 2.352,1.371c0,1.286 -1.235,1.404 -2.319,1.404l-0.964,0l0,-2.775z"/>
     </g>
    </g>
   </g>
   <g transform="matrix(1.25,0,0,-1.25,-566.08415,16.203244) " id="g208">
    <path fill="#ffffff" fill-rule="nonzero" id="path210" d="m493.84921,7.0065l3.858,0l4.552,-11.811l-3.452,0l-0.88,2.521l-4.433,0l-0.931,-2.521l-3.198,0l4.484,11.811zm1.929,-2.437l-0.034,0l-1.523,-4.62l2.962,0l-1.405,4.62z"/>
   </g>
   <g transform="matrix(1.25,0,0,-1.25,-555.02428,16.203244) " id="g212">
    <path fill="#ffffff" fill-rule="nonzero" id="path214" d="m493.84921,7.0065l4.01,0l3.994,-8.021l0.033,0l-0.05,8.021l2.877,0l0,-11.811l-3.91,0l-4.128,8.072l-0.033,0l0.1,-8.072l-2.893,0l0,11.811z"/>
   </g>
   <g transform="matrix(1.25,0,0,-1.25,-540.1094,16.203244) " id="g216">
    <path fill="#ffffff" fill-rule="nonzero" id="path218" d="m493.84921,7.0065l3.147,0l0,-4.823l0.034,0l3.553,4.823l3.79,0l-4.365,-5.499l4.704,-6.312l-4.011,0l-3.671,5.364l-0.034,0l0,-5.364l-3.147,0l0,11.811z"/>
   </g>
   <g id="g220" transform="matrix(1.25,0,0,-1.25,-708.8199,347.27287) ">
    <g clip-path="url(#clipPath224)" id="g222">
     <g id="g228">
      <path fill="#ffffff" fill-rule="nonzero" id="path230" d="m643.58351,271.86221l5.432,0c2.199,0 3.841,-0.964 3.841,-2.995c0,-1.489 -0.761,-2.318 -2.081,-2.758l0,-0.034c1.574,-0.322 2.385,-1.168 2.385,-2.606c0,-2.826 -2.487,-3.418 -4.602,-3.418l-4.975,0l0,11.811zm3.147,-4.671l0.88,0c1.033,0 2.098,0.254 2.098,1.253c0,1.082 -1.014,1.184 -2.064,1.184l-0.914,0l0,-2.437zm0,-4.907l0.931,0c1.15,0 2.352,0.17 2.352,1.371c0,1.286 -1.235,1.404 -2.318,1.404l-0.965,0l0,-2.775z"/>
     </g>
     <g id="g232">
      <path fill="#ffffff" fill-rule="nonzero" id="path234" d="m653.85872,271.86221l5.618,0c2.098,0 3.807,-0.948 3.807,-2.979c0,-1.573 -0.744,-2.622 -2.267,-2.977l0,-0.034c1.014,-0.271 1.082,-1.168 1.675,-2.606l1.15,-3.215l-3.282,0l-0.677,2.131c-0.643,2.031 -1.05,2.54 -2.217,2.54l-0.66,0l0,-4.671l-3.147,0l0,11.811zm3.147,-4.907l0.829,0c1.016,0 2.302,0.034 2.302,1.371c0,1.099 -1.1,1.302 -2.302,1.302l-0.829,0l0,-2.673z"/>
     </g>
    </g>
   </g>
   <path fill="#ffffff" fill-rule="nonzero" id="path236" d="m122.06662,7.44475l3.93375,0l0,14.76375l-3.93375,0l0,-14.76375z"/>
   <g transform="matrix(1.25,0,0,-1.25,-592.19652,8.7581244) " id="g246">
    <path fill="#ffffff" fill-rule="nonzero" id="path248" d="m493.84921,7.0065l-16.471,0c-2,0 -3.621,-1.661 -3.621,-3.71l0,-0.039l0,-16.273c0,-2.029 1.591,-3.679 3.565,-3.709l16.518,0c2,0 3.622,1.66 3.622,3.709l0.007,16.312c0,2.049 -1.62,3.71 -3.62,3.71m-14.514,-21.83l-0.898,-0.01c-1.088,0 -1.97,0.894 -1.97,1.997l-0.005,0.157l0,15.064l0.006,0.812c0.041,1.067 0.852,1.925 1.913,1.925l1.827,0c1.656,0 2.998,-1.44 2.998,-3.137c0,-0.84 -0.329,-1.602 -0.862,-2.156l-4.661,-4.73l4.369,-4.449c0.563,-0.581 0.903,-1.343 0.903,-2.178c0,-1.82 -1.62,-3.295 -3.62,-3.295m13.431,0.015l-8.145,0.003c0,0 0.941,2.035 0.941,3.295c0,1.537 -0.513,2.909 -1.317,3.817l-2.786,2.84l2.843,2.938c0.847,0.795 1.409,2.207 1.409,3.816c0,1.274 -0.352,2.402 -0.919,3.221l1.973,0c1.656,0 2.999,-1.44 2.999,-3.137c0,-0.84 -0.329,-1.602 -0.862,-2.156l-4.572,-4.681l9.496,-9.683c-0.301,-0.189 -0.68,-0.273 -1.06,-0.273m1.989,3.023l-6.805,6.936l3.241,3.294c0.659,0.825 1.078,2.067 1.078,3.456c0,1.282 -0.357,2.439 -0.929,3.258l1.45,-0.044c1.088,0 1.97,-0.894 1.97,-1.997l-0.005,-14.903z"/>
   </g>
  </g>
 </g>
</svg>